<?xml version="1.0" encoding="UTF-8"?>
<svg id="Layer_1" xmlns="http://www.w3.org/2000/svg" version="1.1" viewBox="0 0 146.07 140.67">
  <!-- Generator: Adobe Illustrator 30.1.0, SVG Export Plug-In . SVG Version: 2.1.1 Build 136)  -->
  <defs>
    <style>
      .st0 {
        fill: #02aeef;
      }
    </style>
  </defs>
  <path class="st0" d="M110.84,27.52c17.02,14.96,22.78,33.51,17.2,54.74-5.7,21.67-20.74,34.18-42.7,38.31-2.27.43-4.65.4-6.97.4-20.16.03-40.32.02-60.48,0-1.29,0-2.58-.11-4.15-.19,0-4.92-.42-9.59.08-14.16,1.18-10.78,9.43-17.78,20.5-17.8,14.16-.03,28.32.03,42.49-.02,10.98-.04,19.76-7.59,20.71-17.7,1.08-11.43-5.3-20.32-16.35-22.77-9.94-2.2-20.75,4.51-23.56,14.63-.4,1.43-.74,2.87-1.1,4.27-8.27-8.39-16.41-16.64-24.65-25,12.85-25.65,51.1-36.76,78.98-14.74v.02Z"/>
</svg>