<?xml version="1.0" encoding="UTF-8"?>
<svg id="Layer_1" xmlns="http://www.w3.org/2000/svg" version="1.1" viewBox="0 0 825.29 720">
  <!-- Generator: Adobe Illustrator 30.1.0, SVG Export Plug-In . SVG Version: 2.1.1 Build 136)  -->
  <defs>
    <style>
      .st0 {
        fill: #126cd3;
      }
    </style>
  </defs>
  <path class="st0" d="M157.39,666.74c-3.2,0-6.41,0-10.04-.24-6.74-2.61-10.81-10.88-9.4-16.2,3.59-13.49,7.3-26.99,9.92-40.68,2.21-11.55,3.54-23.35,4.22-35.11.85-14.67-.26-29.35-2.81-43.86-1.99-11.32-3.97-22.64-6.32-33.88-2.94-14.04-7.67-27.53-12.69-40.96-5.9-15.8-10.42-32.05-12.64-48.83-1.52-11.44-3.68-22.87-4.17-34.36-.59-13.76,0-27.61.64-41.39.44-9.25,1.32-18.56,2.99-27.67,3.45-18.93,8.32-37.5,15.23-55.53,7.65-19.97,17.17-38.98,28.85-56.87,12.3-18.83,26.29-36.28,42.79-51.65,6.23-5.8,12.22-11.9,18.84-17.22,12.89-10.36,26.42-19.8,40.84-28.05,15.75-9.01,32.07-16.58,49.15-22.61,20.37-7.19,41.18-12.48,62.73-14.74,3.1-.32,6.12-1.4,9.18-2.13.55,0,1.1,0,2.02.25,1.29.08,2.21-.08,3.13-.25,17.67,0,35.34,0,53.47.27,1.62.58,2.75,1.04,3.93,1.17,6.95.79,14.04.87,20.82,2.37,16.77,3.73,33.58,7.47,50.04,12.37,20.34,6.05,39.51,15.02,57.9,25.71,17.62,10.24,34.24,21.93,49.07,35.82,10.45,9.79,19.98,20.64,29.39,31.46,11.77,13.54,21.03,28.86,29.28,44.73,8.28,15.94,14.62,32.68,19.56,49.98,4.65,16.31,7.64,32.91,9.33,49.72.91,9.08.67,18.27.83,27.42.11,6.32-2.41,8.86-8.69,8.77-13.31-.19-26.62-.57-39.93-.7-32.56-.31-65.11-.52-97.67-.75-37.21-.26-74.43-.64-111.64-.63-8.82,0-18.86-9.84-18.73-18.88.32-22.92.16-45.84.07-68.77-.03-6.69-.24-13.39-.74-20.06-1.1-14.65-18.36-27.19-33.55-22.06-11.13,3.76-19.36,15.1-19.36,27.62-.02,85.44,0,170.88-.02,256.32,0,7.01,1.69,13.4,5.82,19.24,5.22,7.38,17.33,12.12,25.91,9.98,14.19-3.56,21.78-14.98,21.91-28.82.24-25.37.15-50.75.03-76.12-.05-11.23,9.42-19.67,19.69-19.68,78.08-.05,156.17-.06,234.25.01,12.97.01,20.23,12.15,18.88,22.52-.8,6.15-2.27,12.23-3.76,18.26-4.87,19.65-11.41,38.79-20.78,56.71-6.64,12.69-14.45,24.83-22.45,36.74-10.65,15.84-23.64,29.69-37.88,42.44-12.32,11.03-25.39,20.94-39.36,29.78-19,12.02-39.2,21.46-60.35,28.93-19.78,6.98-40,12.25-60.88,14.71-11.01,1.3-22.02,3.27-33.06,3.46-16.07.28-32.17-.54-48.23-1.37-8.03-.42-16.08-1.49-23.99-2.97-18.57-3.48-36.76-8.52-54.37-15.4-15.39-6.01-30.39-12.94-44.4-21.79-10.2-6.44-20.26-13.12-29.86-19.35-9.23,11.87-18.28,24.29-28.19,35.98-6.11,7.21-13.12,13.8-20.45,19.78-7.64,6.24-16.15,11.43-24.28,17.07M259.64,279.46v131.98c0,9.59,8.24,17.23,17.41,17.73,9.88.53,19.35-8.19,19.36-19.51.05-44.6.07-89.21-.08-133.81,0-3.85-.85-7.89-2.2-11.51-2.54-6.84-8.17-10.35-15.2-10.88-7.3-.56-12.96,2.78-16.91,9.01-3.23,5.09-2.24,10.76-2.38,17.01M359.68,444.94c0-35.28.02-70.56,0-105.84,0-14.19-15.58-23.94-28.12-17.53-7.49,3.84-11.56,10.1-11.57,18.62-.05,35.65.04,71.3-.07,106.94-.02,7.22,2.31,13.23,7.71,17.95,8.01,7,20.53,6,27.71-3.08,3.84-4.85,4.74-10.41,4.35-17.07h-.01,0Z"/>
</svg>