<?xml version="1.0" encoding="UTF-8"?>
<svg id="Layer_1" xmlns="http://www.w3.org/2000/svg" version="1.1" viewBox="0 0 349.8 318.27">
  <!-- Generator: Adobe Illustrator 30.1.0, SVG Export Plug-In . SVG Version: 2.1.1 Build 136)  -->
  <defs>
    <style>
      .st0 {
        fill: #fcbc04;
      }

      .st1 {
        fill: #4385f5;
      }

      .st2 {
        fill: #35a853;
      }
    </style>
  </defs>
  <path class="st1" d="M128.96,53.22c1.29-2.42,2.52-4.88,3.89-7.26,18.84-32.63,65.56-33.03,84.73-.57,13.22,22.38,26.02,45,39.01,67.51,19.86,34.43,39.78,68.83,59.54,103.32,17.28,30.17-1.68,68.39-36.12,73.05-19.52,2.64-38.84-6.78-48.92-24.15-15.95-27.47-31.76-55.02-47.63-82.54-2.59-4.49-5.18-8.97-7.96-13.73-.55-.94-.91-1.62-1.29-2.28-13.68-23.72-27.35-47.44-41.03-71.16-5.8-10.05-7.99-20.82-6.25-32.31.5-3.32,1.35-6.59,2.03-9.88h0Z"/>
  <path class="st0" d="M128.81,53.29c-.53,3.22-1.37,6.49-1.88,9.81-1.74,11.49.45,22.25,6.25,32.31,13.68,23.72,27.36,47.44,41.03,71.16.38.66.74,1.33,1.14,2.17-7.19,12.62-14.44,25.06-21.65,37.52-9.71,16.8-19.39,33.62-29.09,50.43-.33.57-.78,1.08-1.29,1.43,2.41-7.41,3.7-14.8,2.71-22.47-2.66-20.56-13.64-34.93-33.2-41.51-19.92-6.7-37.46-1.5-52.07,13.59-.43.44-1.02.73-1.54,1.09.67-1.35,1.27-2.73,2.02-4.04,28.89-50.12,57.79-100.23,86.69-150.35.21-.37.46-.71.85-1.14h.03Z"/>
  <path class="st2" d="M39.25,208.8c.51-.35,1.1-.64,1.53-1.08,14.61-15.09,32.15-20.29,52.07-13.59,19.56,6.58,30.54,20.96,33.2,41.51.99,7.67-.31,15.06-2.91,22.48-2.76,7.22-6.85,13.36-12.44,18.32-14.65,13.01-31.57,16.8-49.99,10.18-18.32-6.59-28.99-20.25-31.99-39.47-1.76-11.28.66-21.96,6.44-31.84,1.02-1.75,2.05-3.5,3.38-5.39.44-.48.58-.82.71-1.15v.03h0Z"/>
  <path class="st0" d="M39.09,208.83c.03.28-.11.61-.44.97-.04-.29.12-.6.44-.97Z"/>
</svg>