<?xml version="1.0" encoding="UTF-8"?><svg id="Layer_1" xmlns="http://www.w3.org/2000/svg" viewBox="0 0 489.17 512"><defs><style>.cls-1{fill:#fe7a59;}</style></defs><path class="cls-1" d="M484.75,266.37c-12.81-50.2-57.39-90.97-109.12-97.38l-.03-61.28c49.9-26.21,24.99-101.51-32.18-89.41-11.73,2.48-22.96,10.57-29.22,20.78-14.84,24.25-5.3,56.75,20.46,68.59l-.17,59.7c-.67,1.96-14.57,4.13-17.87,5.13-16.72,5.09-31.43,13.35-45.5,23.54-55.9-43.19-112.15-86.36-167.1-130.5C112.11,34.64,90.71,6.22,60.62,0h-16C19.66,5.8.01,26.27,0,52.67c-.02,32.82,30.4,58.51,62.85,52.06,4.64-.93,15.02-6.51,17.74-5.24l160.57,125.53,2.44,1.01c-3.56,7.14-8.01,13.93-11.15,21.3-18.09,42.4-13.52,91.45,12.99,129.18l-49.86,50.03c-38.68-9.57-70.63,31.11-48.8,65.8,6.66,10.57,16.88,14.86,27.84,19.66h16c16.76-5.2,30.8-15.78,34.75-33.75,1.91-8.7.39-14.9-.27-23.22l48.23-47.92c8.24,3.65,15.5,9.75,23.93,13.75,103.44,49.07,215.71-43.87,187.49-154.49ZM310.61,350.51c-41.09-38.78-18.99-111.97,37.79-118.23,24.86-2.75,51.72,15.14,62.6,36.84,32.44,64.73-45.84,132.88-100.39,81.39Z"/></svg>