<?xml version="1.0" encoding="UTF-8"?>
<svg id="Layer_1" xmlns="http://www.w3.org/2000/svg" version="1.1" viewBox="0 0 612 561">
  <!-- Generator: Adobe Illustrator 30.1.0, SVG Export Plug-In . SVG Version: 2.1.1 Build 136)  -->
  <defs>
    <style>
      .st0 {
        fill: #a8a9ae;
      }

      .st1 {
        fill: #1e64b6;
      }

      .st2 {
        fill: #adaeb3;
      }

      .st3 {
        fill: #bec1c4;
      }

      .st4 {
        fill: #a3a3a9;
      }

      .st5 {
        fill: #93939a;
      }

      .st6 {
        fill: #babcbf;
      }

      .st7 {
        fill: #9c9ca2;
      }

      .st8 {
        fill: #1d63b4;
      }

      .st9 {
        fill: #b4b6ba;
      }

      .st10 {
        fill: #2369bd;
      }

      .st11 {
        fill: #9f9fa5;
      }

      .st12 {
        fill: #a7a8ad;
      }

      .st13 {
        fill: #909097;
      }

      .st14 {
        fill: #195fae;
      }

      .st15 {
        fill: #adafb3;
      }

      .st16 {
        fill: #a2a3a8;
      }

      .st17 {
        fill: #95959c;
      }
    </style>
  </defs>
  <path class="st6" d="M2.68,270.77c-.44-1.32-.89-2.63-1.58-3.66-.25-10.44-.25-21.16-.25-32.29.56-1.33,1.41-2.2,1.64-3.21,1.45-6.17,2.76-12.38,4.57-18.89,2.47-1.26,4.65-1.97,6.48-3.19,11.95-7.94,23.81-16.02,35.73-24.01,38.81-25.99,77.63-51.98,116.46-77.93,26.44-17.67,52.93-35.26,79.35-52.96,1.65-1.11,2.86-2.89,4.27-4.36,3.37-.61,6.73-1.66,10.12-1.76,24.06-.7,48.12-1.23,72.19-1.71,2.46-.05,4.93.53,7.71,1.15-1.17,1.78-2.47,3.49-4.16,4.62-37.86,25.41-75.76,50.76-113.65,76.11-38.71,25.9-77.42,51.82-116.15,77.69-31.83,21.26-63.72,42.44-95.51,63.77-2.54,1.71-4.66,2.29-7.23.6Z"/>
  <path class="st14" d="M472.08,518.45c-5.14-9.11-9.87-18.23-14.65-27.32-2.83-5.38-5.78-10.7-8.64-16.07-4.49-8.42-8.95-16.86-13.19-25.65,3.68-3.8,7.14-7.22,10.56-10.68,18.53-18.8,37.05-37.6,55.56-56.42.78-.79,1.42-1.72,2.39-2.48,3.11,2.92,6.18,5.53,8.72,8.59,2.36,2.84,4.16,6.16,6.21,9.26,6.91,11.54,13.86,23.07,20.73,34.64,9.43,15.86,18.81,31.75,28.21,47.62,6.79,11.46,13.58,22.93,20.34,34.41.33.56.45,1.23.87,2.4-1.85,0-3.33,0-4.82,0-17.74,0-35.48-.02-53.23.05-1.56,0-3.12.61-4.6,1.29-17.97.36-36.02.36-54.47.36Z"/>
  <path class="st9" d="M2.61,271.12c2.64,1.34,4.75.76,7.29-.95,31.78-21.33,63.68-42.51,95.51-63.77,38.73-25.87,77.44-51.79,116.15-77.69,37.89-25.35,75.79-50.7,113.65-76.11,1.69-1.13,2.99-2.84,4.54-4.56,7.49.43,14.93.97,22.33,1.89,8.18,1.02,16.41,1.96,24.45,3.7,14.14,3.05,28.17,6.68,42.47,10.39-11.21,7.97-22.67,15.59-34.1,23.26-17.75,11.9-35.51,23.8-53.19,35.8-1.22.83-1.84,2.55-3.1,3.92-6.58.63-12.82.95-18.98,1.81-15,2.1-30.02,4.18-44.94,6.78-22.49,3.92-43.83,11.65-64.44,21.23-16.27,7.56-31.56,16.88-45.21,28.7-13.11,11.35-24.67,23.86-32.72,39.45-7.19,13.9-10.65,28.56-11.02,44.13-4.37,2.42-8.53,4.66-12.46,7.26-25.21,16.72-50.39,33.49-75.49,50.37-2.48,1.66-4.36,4.21-6.52,6.35-11.41-16.83-18.8-35.36-23.24-55.13-.48-2.12-.68-4.31-.95-6.82Z"/>
  <path class="st3" d="M248.99,50.24c-1.05,1.53-2.25,3.31-3.91,4.42-26.42,17.7-52.91,35.29-79.35,52.96-38.84,25.95-77.65,51.94-116.46,77.93-11.92,7.98-23.78,16.06-35.73,24.01-1.84,1.22-4.01,1.93-6.34,2.89,1.44-5.56,2.72-11.33,5.01-16.67,7.07-16.47,16.34-31.62,28.1-45.24,19.18-22.21,41.7-40.2,67.13-54.82,29.62-17.04,61.18-29,94.26-36.97,14.5-3.49,29.3-5.76,43.97-8.54.95-.18,1.97-.02,3.32.05Z"/>
  <path class="st2" d="M338.96,126.94c.9-1.31,1.51-3.03,2.73-3.86,17.68-12.01,35.44-23.9,53.19-35.8,11.43-7.66,22.89-15.29,34.42-23.19,13.95,4.65,27.93,9.22,41.6,14.6,8.87,3.49,17.28,8.14,25.87,12.79-.31.81-.56,1.18-.9,1.41-17.46,11.57-34.95,23.1-52.36,34.74-2.63,1.76-4.91,4.05-7.71,6.15-.92.06-1.5.14-2.05.06-11.45-1.67-22.85-3.79-34.36-4.91-11.65-1.13-23.4-1.4-35.11-1.79-8.44-.28-16.89-.14-25.33-.19Z"/>
  <path class="st12" d="M436.17,133.7c2.44-2.04,4.72-4.33,7.35-6.09,17.41-11.64,34.9-23.16,52.36-34.74.34-.23.59-.59,1.04-1.14,10.23,5.79,20.47,11.58,30.33,17.95,6.21,4.02,11.87,8.9,17.75,13.91-1.43,1.66-2.76,2.92-4.26,3.93-11.44,7.66-22.91,15.29-34.39,22.9-1.97,1.31-4.01,2.5-6.33,3.72-14.22-6.58-28.58-11.87-43.61-15.29-6.79-1.55-13.5-3.42-20.24-5.15Z"/>
  <path class="st13" d="M519.31,397.55c-2.32-2.98-4.12-6.29-6.48-9.13-2.54-3.06-5.62-5.67-8.87-8.81-.99-.97-1.57-1.61-1.96-2.51,28.91-14.56,51.86-34.6,64.79-64.92,1.78-.78,3.35-1.4,4.73-2.31,10.08-6.66,20.1-13.42,30.22-20.02,1.21-.79,2.91-.82,4.39-1.2-2.77,13.13-8.75,24.95-15.21,36.5-10.15,18.17-23.68,33.75-39.16,47.45-10.12,8.96-21.41,16.6-32.45,24.96Z"/>
  <path class="st16" d="M500.33,154.16c2.01-1.25,4.05-2.44,6.02-3.74,11.48-7.61,22.95-15.23,34.39-22.9,1.5-1,2.82-2.27,4.38-3.66,13.04,10.48,24.57,22.51,34.78,35.82,1.41,1.84,2.67,3.8,3.71,5.99-1.98.84-3.88,1.06-5.31,1.99-9.26,6.03-18.43,12.19-27.59,18.37-1.12.76-2,1.89-3.24,2.73-8.76-7.49-16.92-15.32-25.89-22.08-6.53-4.91-14.13-8.4-21.25-12.52Z"/>
  <path class="st7" d="M547.72,188.88c.99-.96,1.86-2.09,2.98-2.85,9.16-6.18,18.33-12.34,27.59-18.37,1.43-.93,3.33-1.15,5.34-1.7,7.89,10.37,13.78,21.66,18.16,33.67,2.66,7.28,4.55,14.84,6.43,22.64-1.94,1.2-3.61,1.92-5.11,2.89-9.97,6.44-19.91,12.93-29.92,19.06-2.8-15.35-7.8-29.51-16.19-42.32-2.92-4.45-6.18-8.68-9.29-13.02Z"/>
  <path class="st17" d="M573.26,244.57c9.95-6.48,19.89-12.97,29.87-19.41,1.5-.97,3.17-1.69,5.05-2.55,1.19,5.8,2.71,11.62,2.84,17.46.22,10.02-.07,20.08-.85,30.07-.48,6.1-2.26,12.09-3.75,18.32-1.77.56-3.47.59-4.68,1.38-10.12,6.6-20.13,13.36-30.22,20.02-1.38.91-2.95,1.54-4.68,2,3.39-10.56,6.29-20.93,7.28-31.92,1.07-11.89.82-23.62-.87-35.38Z"/>
  <path class="st1" d="M501.81,377.36c.58.64,1.16,1.28,1.89,2.14-.56,1.08-1.2,2.01-1.99,2.81-18.51,18.82-37.03,37.62-55.56,56.42-3.42,3.47-6.88,6.88-10.61,10.38-2.19-3.44-4.09-6.93-6.13-11-4.88-9.47-9.49-18.45-14.41-27.25-1.82-3.25-4.38-6.08-6.73-9.36-5.1-7.7-10.24-16.04-19.26-17.8-10.37-2.02-21.27-1.29-32.16-1.77,0,8.41,0,15.82-.05,23.62-.01,15.92.02,31.44.06,46.96,0,0-.01.09-.37.09-1.64.75-3.17,1.27-4.18,2.3-2.95,2.99-5.61,6.27-8.55,9.28-16.02,16.37-32.1,32.67-48.12,49.04-.95.97-1.56,2.26-2.33,3.41h-40.61c0-21.23,0-42.27,0-64.1.06-7.29.12-13.79.45-20.35,3.1-2.94,5.94-5.81,8.76-8.69,11.29-11.56,22.53-23.16,33.86-34.68,19.71-20.04,39.48-40.02,59.18-60.07,6.3-6.41,12.45-12.96,18.62-19.49.74-.78,1.16-1.87,2.12-2.87,15.97-.35,31.64.28,47.12-1.14,21.46-1.97,28.78-17.46,25.44-36.5-.97-5.54-3.4-10.2-7.81-13.34-3.88-2.76-8.46-4.52-12.46-6.89,4.41-.06,7.17-2.33,9.92-5.15,18.64-19.09,37.43-38.02,56.06-57.12,1.45-1.49,2.05-3.82,3.37-5.8,15.22,5.17,28.23,13.2,38.88,25.07,13.74,15.31,19.84,33.62,20.61,53.64.39,10.21-.64,20.66-2.46,30.74-4.97,27.56-21.47,46.96-45.45,60.27-12.17,6.76-25.54,10.46-38.33,12.79,10,4.62,20.61,9.53,31.21,14.43Z"/>
  <path class="st15" d="M26.9,333.33c2.06-2.4,3.94-4.95,6.42-6.61,25.1-16.88,50.29-33.64,75.49-50.37,3.93-2.6,8.09-4.85,12.52-6.89,1.12,11.56,3.4,22.47,8.48,32.47,4.15,8.18,9.29,15.86,13.7,23.82-.92.37-1.58.63-2.16,1.01-24.17,16.2-48.34,32.4-72.5,48.63-.79.53-1.41,1.32-2.11,2-15.35-12.69-28.67-27.23-39.85-44.06Z"/>
  <path class="st0" d="M66.86,377.65c.59-.94,1.21-1.73,2-2.26,24.15-16.23,48.32-32.43,72.5-48.63.58-.39,1.24-.64,2.42-.9,11.36,12.92,23.65,24.14,37.43,33.52-22.1,14.78-43.93,29.37-65.66,44.1-1.67,1.13-2.66,3.27-3.96,4.94-11.22-7.27-22.5-14.44-33.62-21.86-3.87-2.58-7.34-5.75-11.1-8.91Z"/>
  <path class="st4" d="M111.85,408.56c1.03-1.8,2.02-3.94,3.69-5.07,21.73-14.73,43.56-29.33,65.85-44.03.73.23.98.52,1.31,1.1.89.68,1.71,1.08,2.83,1.49,6.22,3.39,12.03,6.97,18.07,10.08,7.01,3.61,14.23,6.81,21.14,10.38-1.71,1.43-3.11,2.83-4.72,3.91-19.11,12.79-38.29,25.49-57.34,38.36-1.64,1.11-2.54,3.33-3.79,5.03-7.26-2.85-14.67-5.4-21.76-8.63-8.47-3.86-16.68-8.3-25.27-12.63Z"/>
  <path class="st5" d="M408.39,401.77c2.22,3.02,4.79,5.85,6.6,9.1,4.92,8.8,9.53,17.77,14.28,26.97-17.75,4.25-35.5,8.32-53.3,12.08-6.04,1.28-12.26,1.75-18.75,2.6-.4-15.52-.43-31.04-.03-46.95,9.76-.67,19.08-.9,28.41-1.25,4.57-.17,9.14-.42,13.69-.89,3.06-.32,6.08-1.09,9.12-1.65Z"/>
  <path class="st11" d="M159.04,430.09c1.09-1.98,1.99-4.2,3.63-5.31,19.05-12.88,38.23-25.57,57.34-38.36,1.61-1.08,3.01-2.47,5.05-3.89,9.55,2.93,18.56,6.03,27.61,9.53,0,4.64-.03,8.88-.34,13.19-1.05.4-1.88.65-2.57,1.11-16.56,11.02-33.11,22.05-49.62,33.15-.96.65-1.56,1.83-2.33,2.76-12.87-3.96-25.74-7.93-38.76-12.17Z"/>
  <path class="st8" d="M293.71,516.68c.38-1.2.99-2.49,1.93-3.46,16.02-16.37,32.1-32.67,48.12-49.04,2.94-3,5.6-6.29,8.55-9.28,1.01-1.03,2.54-1.55,4.13-2.3.31,21.21.31,42.41.31,64.13-21.14,0-41.9,0-63.04-.06Z"/>
  <path class="st7" d="M198.14,442.31c.43-.99,1.03-2.17,1.99-2.82,16.51-11.09,33.06-22.12,49.62-33.15.69-.46,1.52-.7,2.62-.71.4,9.09.46,17.85.52,26.6-.06,6.5-.12,13-.23,19.9-6.94-.73-13.87-1.7-20.73-3.02-11.17-2.13-22.3-4.49-33.78-6.81Z"/>
  <path class="st10" d="M252.66,392.05c0-2.22.08-4.05.08-5.88,0-69.31,0-138.63-.01-207.94,0-1.66,0-3.33,0-5.52,1.83,0,3.33,0,4.83,0,66.5,0,132.99-.1,199.49.12,13.47.04,26.72,2.52,39.7,7.49-.71,2.08-1.31,4.41-2.76,5.9-18.63,19.09-37.43,38.03-56.06,57.12-2.76,2.82-5.51,5.09-10.14,5.19-.63.18-.77.15-1.05-.07-.89-.06-1.64.06-2.75.24-2.83-.22-5.3-.72-7.77-.73-17.71-.07-35.41-.03-53.12-.03-1.48,0-2.96,0-4.98,0v58.47h17.2c-.57.94-.99,2.03-1.73,2.81-6.17,6.53-12.33,13.08-18.62,19.49-19.7,20.05-39.48,40.03-59.18,60.07-11.33,11.52-22.57,23.12-33.86,34.68-2.82,2.89-5.66,5.75-8.76,8.69-.34-8.69-.4-17.45-.51-26.6-.01-4.64.02-8.88.01-13.52Z"/>
  <path class="st0" d="M182.7,360.56c.71.13,1.5.55,2.41,1.22-.7-.14-1.52-.54-2.41-1.22Z"/>
  <path class="st1" d="M426.73,248.47c-.5.23-1.13.27-2.08.25.44-.19,1.19-.31,2.08-.25Z"/>
</svg>