<?xml version="1.0" encoding="UTF-8"?>
<svg id="Layer_1" xmlns="http://www.w3.org/2000/svg" version="1.1" viewBox="0 0 211.05 172.21">
  <!-- Generator: Adobe Illustrator 30.1.0, SVG Export Plug-In . SVG Version: 2.1.1 Build 136)  -->
  <defs>
    <style>
      .st0 {
        fill: #ff550e;
      }

      .st1 {
        fill: #ff6531;
      }

      .st2 {
        fill: #ff632f;
      }
    </style>
  </defs>
  <path class="st2" d="M142.84,32.01c15.77.77,28.35,7.29,38.99,19.2,26.04,29.14,11.58,84.87-37.57,91.87-22.07,3.15-43.47-.91-63.91-8.87-12.6-4.9-24.39-11.87-36.49-18.03-1.89-.96-3.65-2.41-5.07-3.99-1.19-1.33-1.81-3.17-2.68-4.79,1.67-.43,3.33-1.2,5-1.22,7.83-.13,15.66.09,23.49-.14,2.44-.07,4.85-1.15,7.27-1.77-1.79-1.67-3.35-3.71-5.4-4.96-16.55-10.15-33.23-20.09-49.76-30.28-2.93-1.81-5.53-4.3-7.9-6.83-1.21-1.29-1.58-3.37-2.33-5.09,1.73-.64,3.46-1.84,5.19-1.85,20.16-.13,40.32-.08,60.47-.09,1.33,0,2.7.16,3.99-.1,1.03-.21,1.96-.93,2.94-1.43-.62-1.05-.98-2.61-1.9-3.07-4-2.02-8.25-3.53-12.22-5.58-5.3-2.74-10.5-5.7-15.59-8.82-1.17-.72-1.72-2.47-1.8-3.91,32.26-.2,63.76-.22,95.27-.25M120.97,121.14c3.15,1.19,6.21,2.91,9.48,3.49,14.69,2.62,27.44-1.15,37.32-12.66,9.45-11.01,11.68-23.77,7.26-37.38-4.61-14.2-14.95-22.71-29.43-25.32-15.34-2.76-28.38,2.3-38.04,14.6-14.6,18.59-8.04,46.28,13.41,57.27h0Z"/>
  <path class="st0" d="M142.56,31.66c-31.23.38-62.74.4-94.72.41.21-.35.89-.98,1.58-.98,30.96.04,61.91.13,93.15.58h0Z"/>
  <path class="st1" d="M163.62,71.04c1.7,4.83,3.55,9.27,4.5,13.89.32,1.53-1.98,5.15-2.53,5.05-3.15-.63-8.14,2.91-9.1-3.57-.38-2.58-1.25-5.18-2.37-7.54-2.78-5.81-7.46-9.5-13.94-9.87-5.49-.32-4.74-3.84-4.77-7.35-.03-4.23,2.93-3.71,5.56-3.61,9.63.39,16.61,5.55,22.64,13h.01Z"/>
</svg>